<svg version="1.2" xmlns="http://www.w3.org/2000/svg" viewBox="49 17.84942813775458 95 39.15057186224542" width="512" height="216">
	<style>
		.s0 { fill: none;stroke: #000000;stroke-linecap: round;stroke-linejoin: round;stroke-width: 2 } 
		.s1 { fill: #000000 } 
	</style>
	<g id="Layer 1">
		<path class="s0" d="m79 28l-20 20"/>
		<path class="s0" d="m69 48c-5.53 0-10-4.47-10-10 0-5.53 4.47-10 10-10 5.53 0 10 4.47 10 10 0 5.53-4.47 10-10 10z"/>
		<path id="ogis" class="s1" aria-label="ogis"  d="m100.5 38.9q0 3.1-1.5 4.7-1.6 1.6-4.2 1.6-1.6 0-2.9-0.7-1.3-0.8-2-2.1-0.7-1.5-0.7-3.5 0-3 1.5-4.6 1.5-1.6 4.2-1.6 1.6 0 2.9 0.7 1.3 0.7 2 2.1 0.7 1.4 0.7 3.4zm-8.9 0q0 2.1 0.8 3.2 0.8 1.2 2.4 1.2 1.7 0 2.5-1.2 0.8-1.1 0.8-3.2 0-2-0.8-3.1-0.8-1.1-2.5-1.1-1.7 0-2.4 1.1-0.8 1.1-0.8 3.1zm16.4-6.2q2.4 0 3.7 1.8h0.1l0.3-1.6h1.9v12.3q0 2.5-1.3 3.9-1.4 1.3-4.2 1.3-1.4 0-2.5-0.2-1-0.2-2-0.6v-2q2 0.9 4.6 0.9 1.5 0 2.3-0.8 0.8-0.9 0.8-2.4v-0.4q0-0.3 0-0.8 0-0.4 0.1-0.7h-0.1q-0.6 0.9-1.6 1.4-0.9 0.4-2.1 0.4-2.3 0-3.6-1.6-1.2-1.7-1.2-4.6 0-2.9 1.2-4.6 1.3-1.7 3.6-1.7zm0.5 2q-1.4 0-2.1 1.1-0.8 1.1-0.8 3.2 0 2.1 0.8 3.2 0.7 1.1 2.2 1.1 1.6 0 2.4-0.9 0.8-0.9 0.8-3v-0.4q0-2.3-0.8-3.3-0.8-1-2.5-1zm10.6-6.4q0.5 0 0.9 0.3 0.4 0.3 0.4 1.1 0 0.7-0.4 1-0.4 0.4-0.9 0.4-0.6 0-1-0.4-0.4-0.3-0.4-1 0-0.8 0.4-1.1 0.4-0.3 1-0.3zm-1.2 4.6h2.3v12.1h-2.3zm14 8.7q0 1.8-1.3 2.7-1.3 0.9-3.6 0.9-1.3 0-2.2-0.2-0.9-0.2-1.7-0.5v-2.1q0.8 0.4 1.9 0.7 1 0.3 2 0.3 1.4 0 2-0.5 0.6-0.4 0.6-1.1 0-0.4-0.2-0.7-0.3-0.4-0.9-0.7-0.6-0.3-1.8-0.8-1.2-0.5-2-0.9-0.7-0.5-1.2-1.1-0.4-0.7-0.4-1.7 0-1.5 1.3-2.4 1.2-0.8 3.3-0.8 1.1 0 2.1 0.2 1 0.2 1.9 0.6l-0.8 1.8q-0.8-0.3-1.6-0.5-0.8-0.3-1.7-0.3-1.1 0-1.6 0.4-0.6 0.3-0.6 0.9 0 0.4 0.3 0.8 0.2 0.3 0.9 0.6 0.6 0.3 1.7 0.7 1.2 0.5 2 0.9 0.8 0.5 1.2 1.1 0.4 0.7 0.4 1.7z"/>
	</g>
</svg>